# xmcd CD database file
#
# Track frame offsets:
#	150
#	2717
#	17045
#	30867
#	41470
#	69422
#	81567
#	91772
#	120615
#	131010
#	155100
#	172432
#
# Disc length: 2372 seconds
#
# Revision: 0
# Processed by: cddbd v1.5PL3 Copyright (c) Steve Scherf et al.
# Submitted via: CDex 1.51
#
DISCID=9709420c
DTITLE=Miss Nelson and Bruce - The Way-out Record For Children
DYEAR=1968
DGENRE=Electronic
TTITLE0=Introduction
TTITLE1=Motorcycle Ride
TTITLE2=Medieval Dancing
TTITLE3=School For Robots
TTITLE4=Mudra
TTITLE5=Accents
TTITLE6=Rubberbands
TTITLE7=The Saucer's Apprentice
TTITLE8=Encore
TTITLE9=Four Seasons
TTITLE10=Tools
TTITLE11=Nothing To Do
EXTD=YEAR: 1968
EXTT0=
EXTT1=
EXTT2=
EXTT3=
EXTT4=
EXTT5=
EXTT6=
EXTT7=
EXTT8=
EXTT9=
EXTT10=
EXTT11=
PLAYORDER=
